<svg class="logo-landing" width="160" height="32.96" viewBox="0 0 160 32.96" xmlns="http://www.w3.org/2000/svg"><g class="fill"><path d="m4.67 21.89c.07 5.62 5.38 7.11 10.18 7.11 5 0 8.51-1.92 8.51-5.3 0-2.87-2.24-4-5.89-4.66l-7.17-1.23c-3.77-.64-9.3-2.11-9.3-8.24 0-5.74 4.5-9.57 12.57-9.57 6.33 0 12.99 2.3 13.43 9.83h-4.66c-.34-2.49-1.8-5.83-9.34-5.83-3.46 0-7.3 1.49-7.3 5.19 0 1.92 1.28 3.45 5.18 4.15l7.74 1.34c2.5.45 9.48 1.66 9.48 8 0 8-7.17 10.28-13.57 10.28-7.17.04-14.53-2.45-14.53-11.07z"/><path d="m49.47 4.85h-11.9v-4.08h28.48v4h-11.91v27.4h-4.67z"/><path d="m78.72.77h4.67v31.4h-4.67z"/><path d="m99.58.77h4.68v27.38h19.13v4h-23.81z"/><path d="m136.19.77h4.67v27.38h19.14v4h-23.81z"/></g></svg>
